<?xml version="1.0" standalone="no"?>
<!DOCTYPE svg PUBLIC "-//W3C//DTD SVG 20010904//EN"
 "http://www.w3.org/TR/2001/REC-SVG-20010904/DTD/svg10.dtd">
<svg version="1.0" xmlns="http://www.w3.org/2000/svg"
 width="1600.000000pt" height="744.000000pt" viewBox="0 0 1600.000000 744.000000"
 preserveAspectRatio="xMidYMid meet">

<g transform="translate(0.000000,744.000000) scale(0.100000,-0.100000)"
fill="#000000" stroke="red">

<path d="M12677 4335 c-335 -56 -629 -257 -796 -543 -209 -359 -196 -822 34
-1168 174 -262 460 -442 775 -490 318 -47 641 28 880 205 65 49 220 201 220
216 0 6 -70 62 -157 124 l-156 113 -49 -56 c-68 -77 -203 -165 -308 -200 -109
-37 -286 -47 -392 -22 -184 43 -360 169 -464 331 -105 165 -139 382 -89 573
67 259 288 476 548 537 80 19 244 19 327 0 36 -9 103 -34 150 -57 68 -34 103
-60 179 -135 52 -51 95 -93 97 -93 8 0 310 233 313 242 5 15 -133 152 -221
218 -140 105 -334 184 -512 209 -101 14 -281 12 -379 -4z"/>
<path d="M1540 3251 l0 -1091 200 0 200 0 2 654 3 653 230 -225 c127 -124 433
-425 681 -668 248 -244 454 -444 458 -444 3 0 6 490 6 1090 l0 1090 -200 0
-200 0 0 -657 0 -656 -252 249 c-561 553 -1110 1089 -1119 1092 -5 2 -9 -405
-9 -1087z"/>
<path d="M3670 3254 l0 -1084 195 0 195 0 2 654 3 655 210 -206 c116 -113 418
-411 673 -662 255 -251 469 -459 477 -464 13 -7 15 131 15 1073 l0 1080 -195
0 -195 0 -2 -657 -3 -658 -29 33 c-17 18 -36 30 -43 27 -8 -2 -12 -1 -9 4 5 8
-376 393 -653 660 -86 83 -95 89 -108 73 -13 -15 -13 -15 -3 6 10 21 2 31 -96
125 -59 56 -111 101 -116 99 -5 -1 -7 2 -4 7 3 5 -66 79 -154 164 l-160 155 0
-1084z"/>
<path d="M730 3235 l0 -1075 200 0 200 0 0 1075 0 1075 -200 0 -200 0 0 -1075z"/>
<path d="M5960 4303 c-1 -5 0 -187 0 -405 0 -218 -2 -408 -6 -423 l-6 -25
-124 0 -124 0 2 -187 3 -188 128 -3 c93 -2 127 -6 126 -15 -1 -7 -1 -211 0
-454 l1 -443 195 0 195 0 0 455 0 455 435 0 435 0 0 190 0 190 -432 2 -433 3
0 235 0 235 623 3 622 2 0 190 0 190 -820 0 c-451 0 -820 -3 -820 -7z"/>
<path d="M7860 3235 l0 -1075 818 2 817 3 -1 40 c-1 22 -2 221 -3 443 l-1 402
-195 0 -195 0 -2 -252 -3 -253 -417 -3 -418 -2 0 885 0 885 -200 0 -200 0 0
-1075z"/>
<path d="M9920 3880 l0 -430 -130 0 -130 0 2 -187 3 -188 128 -3 127 -3 0
-454 0 -455 820 0 820 0 0 190 0 190 -622 2 -623 3 -3 263 -2 262 435 0 435 0
0 190 0 190 -432 2 -433 3 0 235 0 235 623 3 622 2 0 190 0 190 -820 0 -820 0
0 -430z"/>
<path d="M13960 4120 l0 -190 315 0 315 0 0 -885 0 -885 195 0 195 0 2 883 3
882 313 3 312 2 0 190 0 190 -825 0 -825 0 0 -190z"/>

</g>
</svg>
