<?xml version="1.0" standalone="no"?>
<!DOCTYPE svg PUBLIC "-//W3C//DTD SVG 20010904//EN"
 "http://www.w3.org/TR/2001/REC-SVG-20010904/DTD/svg10.dtd">
<svg version="1.0" xmlns="http://www.w3.org/2000/svg"
 width="1600.000000pt" height="744.000000pt" viewBox="0 0 1600.000000 744.000000"
 preserveAspectRatio="xMidYMid meet">

<g transform="translate(0.000000,744.000000) scale(0.100000,-0.100000)"
fill="#000000" stroke="none">
<path d="M8595 6807 c-5 -7 -30 -37 -55 -67 -25 -30 -55 -66 -66 -80 -46 -54
-573 -690 -634 -765 -36 -44 -67 -82 -70 -85 -3 -3 -39 -45 -80 -95 -41 -49
-77 -92 -80 -95 -3 -3 -21 -25 -40 -50 -19 -25 -45 -56 -58 -70 -13 -14 -31
-37 -40 -52 -9 -16 -20 -28 -25 -28 -4 0 -5 -5 -2 -10 8 -13 35 6 35 25 0 16
27 39 32 28 3 -4 3 -2 2 5 -2 6 1 12 6 12 6 0 10 -9 10 -20 0 -11 5 -20 10
-20 6 0 10 -18 10 -40 0 -33 3 -40 20 -40 17 0 20 -7 20 -39 0 -22 -5 -41 -11
-43 -7 -2 -5 -9 5 -17 14 -12 16 -10 16 19 0 54 25 30 28 -28 3 -51 3 -51 40
-55 20 -2 -8 -5 -63 -7 l-100 -4 90 -6 c71 -5 78 -7 35 -8 -40 -2 -51 -5 -40
-12 8 -5 31 -10 50 -10 20 0 41 -5 48 -12 9 -9 15 -9 24 0 7 7 21 12 33 12 16
0 17 -2 5 -10 -9 -6 -11 -10 -3 -10 7 0 10 -6 8 -12 -2 -7 -1 -74 4 -148 4
-76 9 -108 9 -72 2 60 3 62 28 62 26 0 26 -1 22 -55 -5 -53 -1 -59 28 -56 6 1
19 -8 29 -20 16 -17 17 -22 5 -29 -12 -7 -11 -12 4 -29 25 -28 34 -26 39 7 3
21 4 18 6 -12 1 -30 9 -47 36 -73 39 -37 43 -50 19 -55 -12 -2 -9 -10 15 -33
17 -16 31 -38 31 -47 0 -9 11 -25 25 -36 29 -23 32 -39 8 -44 -15 -3 -15 -4 0
-17 15 -12 17 -11 17 3 0 9 7 16 15 16 11 0 15 -12 15 -46 0 -27 4 -43 10 -39
6 4 10 -6 10 -24 0 -28 -20 -45 -46 -40 -5 1 -16 0 -24 -2 -8 -2 32 -6 90 -9
88 -5 72 -6 -99 -8 l-204 -2 6 -592 c4 -326 7 -810 7 -1075 l0 -483 820 0 820
0 -2 448 -3 447 -67 3 c-38 2 -68 7 -68 13 0 6 18 88 39 182 103 447 131 764
131 1464 l0 403 269 2 268 3 -154 180 c-85 99 -162 189 -171 200 -696 813
-1038 1211 -1042 1215 -3 3 -23 26 -44 53 -41 50 -46 53 -61 34z m-847 -1634
c-10 -2 -28 -2 -40 0 -13 2 -5 4 17 4 22 1 32 -1 23 -4z m120 -281 c2 -7 -3
-12 -12 -12 -9 0 -16 7 -16 16 0 17 22 14 28 -4z m434 -620 c-7 -2 -12 -11
-12 -19 0 -9 -3 -14 -6 -10 -10 10 7 48 19 40 8 -5 8 -8 -1 -11z m-24 -255 c1
34 7 65 12 68 10 6 12 -19 12 -125 0 -39 1 -37 9 20 6 35 12 66 14 69 3 2 14
-4 25 -14 15 -13 20 -31 20 -67 0 -36 4 -48 15 -48 11 0 16 12 17 43 l1 42 4
-42 c2 -24 8 -43 14 -43 5 0 9 -21 9 -47 0 -68 43 -113 53 -55 3 15 4 8 3 -15
-1 -29 3 -43 11 -43 8 0 13 -14 13 -40 0 -36 3 -40 25 -40 20 0 25 -5 25 -24
0 -13 7 -26 15 -30 11 -4 15 -20 15 -56 0 -47 2 -50 25 -50 20 0 25 -5 25 -24
0 -13 7 -26 15 -30 8 -3 15 -13 15 -22 0 -18 27 -54 41 -54 4 0 10 12 13 28 2
15 3 3 2 -27 -3 -48 0 -57 23 -77 22 -20 24 -25 11 -33 -12 -8 -12 -13 4 -30
25 -28 34 -26 40 7 2 15 3 3 2 -26 -3 -47 0 -56 26 -83 16 -16 34 -29 39 -29
5 0 9 -11 9 -24 0 -13 7 -26 15 -30 8 -3 15 -10 15 -16 0 -5 -7 -10 -15 -10
-9 0 -15 -9 -15 -25 0 -22 4 -25 40 -25 31 0 38 -3 34 -15 -4 -8 -15 -15 -25
-15 -24 0 -24 -12 1 -35 11 -10 20 -13 20 -7 0 7 7 12 15 12 15 0 19 -20 16
-67 -1 -11 3 -24 8 -28 6 -3 11 -1 11 6 0 8 4 8 15 -1 21 -18 24 -12 32 61 l7
64 7 -50 c4 -27 7 -66 7 -85 -1 -32 -2 -31 -8 10 l-7 45 -1 -42 c-1 -23 3 -45
9 -48 6 -4 10 -37 9 -78 -3 -137 4 -161 10 -37 l6 125 2 -127 2 -128 -397 -1
c-219 0 -406 -2 -415 -4 -17 -3 -18 43 -16 868 1 480 5 798 8 707 3 -91 7
-137 8 -103z m787 -935 c-3 -3 -11 0 -18 7 -9 10 -8 11 6 5 10 -3 15 -9 12
-12z m-5 -28 c0 -8 -5 -12 -10 -9 -6 4 -8 11 -5 16 9 14 15 11 15 -7z m27
-156 c-2 -13 -4 -3 -4 22 0 25 2 35 4 23 2 -13 2 -33 0 -45z"/>
<path d="M8873 2920 c0 -25 2 -35 4 -22 2 12 2 32 0 45 -2 12 -4 2 -4 -23z"/>
<path d="M9010 2796 c0 -2 7 -9 15 -16 12 -10 15 -10 15 4 0 9 -7 16 -15 16
-8 0 -15 -2 -15 -4z"/>
<path d="M7497 5433 c-10 -9 -9 -33 1 -33 4 0 8 9 9 20 2 21 0 24 -10 13z"/>
<path d="M7465 5380 c3 -5 8 -10 11 -10 2 0 4 5 4 10 0 6 -5 10 -11 10 -5 0
-7 -4 -4 -10z"/>
<path d="M7506 5371 c-4 -6 -2 -11 3 -11 6 0 12 -19 13 -42 l1 -43 4 37 c5 41
-9 79 -21 59z"/>
<path d="M7831 4765 l1 -50 9 39 c6 26 6 43 -1 50 -7 7 -10 -6 -9 -39z"/>
<path d="M1540 3257 l0 -1097 200 0 200 0 0 651 0 652 48 -43 c26 -24 173
-167 327 -319 341 -335 753 -739 898 -881 l107 -105 0 1098 0 1097 -200 0
-200 0 -2 -652 -3 -653 -310 305 c-170 168 -438 431 -595 585 -367 361 -389
383 -433 424 l-37 35 0 -1097z"/>
<path d="M3660 3255 l0 -1095 200 0 200 0 2 654 3 654 185 -180 c176 -172 487
-478 961 -945 119 -117 219 -213 222 -213 4 0 7 490 7 1090 l0 1090 -200 0
-200 0 -2 -650 -3 -650 -105 101 c-58 56 -227 221 -375 368 -699 689 -885 871
-890 871 -3 0 -5 -493 -5 -1095z"/>
<path d="M12640 4331 c-478 -105 -821 -456 -895 -916 -59 -361 60 -725 319
-973 101 -97 179 -150 310 -213 372 -177 814 -144 1166 87 69 45 260 223 260
241 0 4 -19 21 -43 37 -23 16 -73 53 -112 81 -38 28 -92 66 -118 85 l-48 34
-67 -65 c-119 -116 -186 -158 -322 -201 -97 -30 -289 -32 -389 -4 -203 56
-380 203 -471 391 -52 106 -72 197 -72 320 0 123 20 214 72 320 91 188 269
336 470 391 90 25 291 25 375 0 151 -46 271 -129 372 -259 l22 -28 165 123
c91 68 165 127 166 131 1 18 -191 196 -260 241 -106 70 -239 130 -355 162 -88
24 -122 27 -280 30 -148 3 -195 0 -265 -15z"/>
<path d="M730 3235 l0 -1075 200 0 200 0 0 1075 0 1075 -200 0 -200 0 0 -1075z"/>
<path d="M5950 3885 l0 -425 -92 -2 c-51 0 -106 -2 -123 -2 l-30 -1 -3 -193
-2 -192 125 0 125 0 0 -455 0 -455 205 0 205 0 0 455 0 455 433 2 432 3 0 190
0 190 -432 3 -433 2 0 235 0 235 620 0 620 0 0 190 0 190 -825 0 -825 0 0
-425z"/>
<path d="M9916 4295 c-3 -8 -5 -200 -5 -426 l1 -411 -126 1 -126 2 0 -195 0
-196 128 0 127 0 -3 -372 c-2 -205 0 -410 3 -455 l7 -83 819 0 819 0 0 190 0
190 -620 0 -620 0 0 265 0 265 433 2 432 3 0 190 0 190 -432 3 -433 2 0 235 0
235 620 0 620 0 0 190 0 190 -819 0 c-712 0 -820 -2 -825 -15z"/>
<path d="M13960 4120 l0 -190 310 0 310 0 2 -882 3 -883 203 -3 202 -2 0 885
0 885 310 0 310 0 0 190 0 190 -825 0 -825 0 0 -190z"/>
<path d="M3705 1883 c30 -47 127 -174 188 -248 271 -325 609 -567 947 -679
187 -61 315 -80 610 -91 96 -3 290 -10 430 -15 140 -5 323 -12 405 -15 83 -3
200 -7 260 -10 302 -13 420 -14 370 -4 -373 72 -614 183 -900 414 -177 144
-406 399 -538 603 l-48 72 -870 0 -871 0 17 -27z"/>
</g>
</svg>
